<?xml version="1.0" standalone="no"?>
<!DOCTYPE svg PUBLIC "-//W3C//DTD SVG 20010904//EN"
 "http://www.w3.org/TR/2001/REC-SVG-20010904/DTD/svg10.dtd">
<svg version="1.0" xmlns="http://www.w3.org/2000/svg"
 width="512.000000pt" height="512.000000pt" viewBox="0 0 512.000000 512.000000"
 preserveAspectRatio="xMidYMid meet">
<metadata>
Created by potrace 1.16, written by Peter Selinger 2001-2019
</metadata>
<g transform="translate(0.000000,512.000000) scale(0.100000,-0.100000)"
fill="#000000" stroke="none">
<path d="M2410 4968 c-301 -114 -383 -501 -151 -721 213 -202 562 -143 690
117 115 235 4 513 -242 605 -79 29 -219 29 -297 -1z"/>
<path d="M2003 3986 c-161 -39 -294 -160 -355 -322 -23 -59 -23 -61 -26 -768
-3 -706 -3 -708 19 -752 32 -66 90 -98 172 -92 75 4 118 30 147 88 19 38 20
61 20 653 0 463 3 616 12 625 10 10 53 17 60 10 2 -2 5 -709 8 -1573 l5 -1570
27 -46 c15 -25 46 -59 69 -75 39 -27 49 -29 129 -29 77 0 91 3 128 27 22 15
54 49 69 75 l28 48 5 809 c5 756 6 810 23 820 12 8 22 8 35 0 16 -10 17 -64
22 -820 l5 -809 28 -48 c15 -26 47 -60 69 -75 37 -24 51 -27 127 -27 79 0 90
3 129 29 24 16 55 50 70 75 l27 46 5 1570 5 1570 23 3 c54 8 52 29 52 -635 0
-592 1 -615 20 -653 29 -58 72 -84 147 -88 82 -6 140 26 172 92 22 44 22 46
19 752 -3 707 -3 709 -26 768 -63 167 -204 290 -370 325 -78 16 -1030 13
-1099 -3z"/>
</g>
</svg>
